<svg xmlns="http://www.w3.org/2000/svg" viewBox="0 0 580 560" width="580" height="560" font-family="system-ui,sans-serif" font-size="13">
<rect width="100%" height="100%" fill="#fafafa"/>
<defs><marker id="arr" markerWidth="8" markerHeight="8" refX="7" refY="3" orient="auto"><path d="M0,0 L8,3 L0,6 Z" fill="#444"/></marker></defs>
<rect x="120" y="20" width="140" height="40" rx="6" ry="6" fill="#fff" stroke="#333" stroke-width="1.5"/><text x="190" y="40" text-anchor="middle" fill="#111">User chat/RPC</text>
<rect x="320" y="20" width="140" height="40" rx="6" ry="6" fill="#fff" stroke="#333" stroke-width="1.5"/><text x="390" y="40" text-anchor="middle" fill="#111">Cron scheduler</text>
<rect x="200" y="90" width="180" height="44" rx="6" ry="6" fill="#fff" stroke="#333" stroke-width="1.5"/><text x="290" y="112" text-anchor="middle" fill="#111">detect_stage R1-R8</text>
<line x1="190" y1="60" x2="240" y2="90" stroke="#444" marker-end="url(#arr)"/>
<line x1="390" y1="60" x2="320" y2="90" stroke="#444" marker-end="url(#arr)"/>
<rect x="200" y="160" width="180" height="40" rx="6" ry="6" fill="#fff" stroke="#333" stroke-width="1.5"/><text x="290" y="180" text-anchor="middle" fill="#111">freeze _stage</text>
<rect x="430" y="130" width="130" height="36" rx="6" ry="6" fill="#fff" stroke="#333" stroke-width="1.5"/><text x="495" y="148" text-anchor="middle" fill="#111">LLM classifier</text>
<rect x="430" y="180" width="130" height="36" rx="6" ry="6" fill="#fff" stroke="#333" stroke-width="1.5"/><text x="495" y="198" text-anchor="middle" fill="#111">QUERY default</text>
<line x1="290" y1="134" x2="430" y2="148" stroke="#444" marker-end="url(#arr)"/><text x="360" y="137" text-anchor="middle" fill="#555" font-size="11">no match</text>
<line x1="470" y1="166" x2="290" y2="180" stroke="#444" marker-end="url(#arr)"/>
<line x1="500" y1="180" x2="350" y2="200" stroke="#444" marker-end="url(#arr)"/>
<line x1="290" y1="110" x2="290" y2="160" stroke="#444" marker-end="url(#arr)"/><text x="290" y="131" text-anchor="middle" fill="#555" font-size="11">match</text>
<line x1="470" y1="148" x2="350" y2="170" stroke="#444" marker-end="url(#arr)"/><text x="410" y="155" text-anchor="middle" fill="#555" font-size="11">ok</text>
<rect x="200" y="230" width="180" height="40" rx="6" ry="6" fill="#fff" stroke="#333" stroke-width="1.5"/><text x="290" y="250" text-anchor="middle" fill="#111">Stage graph loop</text>
<line x1="290" y1="200" x2="290" y2="230" stroke="#444" marker-end="url(#arr)"/>
<rect x="200" y="300" width="180" height="36" rx="6" ry="6" fill="#fff" stroke="#333" stroke-width="1.5"/><text x="290" y="318" text-anchor="middle" fill="#111">tool call</text>
<line x1="290" y1="270" x2="290" y2="300" stroke="#444" marker-end="url(#arr)"/>
<polygon points="290,360 350,382 290,404 230,382" fill="#fff" stroke="#333" stroke-width="1.5"/><text x="290" y="382" text-anchor="middle" fill="#111">GATE?</text>
<line x1="290" y1="336" x2="290" y2="360" stroke="#444" marker-end="url(#arr)"/>
<rect x="60" y="430" width="100" height="36" rx="6" ry="6" fill="#fff" stroke="#333" stroke-width="1.5"/><text x="110" y="448" text-anchor="middle" fill="#111">execute</text>
<rect x="320" y="430" width="130" height="36" rx="6" ry="6" fill="#fff" stroke="#333" stroke-width="1.5"/><text x="385" y="448" text-anchor="middle" fill="#111">pending_confirm</text>
<line x1="250" y1="382" x2="110" y2="430" stroke="#444" marker-end="url(#arr)"/><text x="180" y="402" text-anchor="middle" fill="#555" font-size="11">auto</text>
<line x1="330" y1="382" x2="385" y2="430" stroke="#444" marker-end="url(#arr)"/><text x="357" y="402" text-anchor="middle" fill="#555" font-size="11">confirm</text>
<rect x="60" y="500" width="100" height="36" rx="6" ry="6" fill="#fff" stroke="#333" stroke-width="1.5"/><text x="110" y="518" text-anchor="middle" fill="#111">terminal?</text>
<line x1="110" y1="466" x2="110" y2="500" stroke="#444" marker-end="url(#arr)"/>
<rect x="200" y="500" width="140" height="36" rx="18" ry="18" fill="#d4edda" stroke="#333" stroke-width="1.5"/><text x="270" y="518" text-anchor="middle" fill="#111">end + report</text>
<line x1="160" y1="518" x2="200" y2="518" stroke="#444" marker-end="url(#arr)"/></svg>