<svg xmlns="http://www.w3.org/2000/svg" viewBox="0 0 400 420" width="400" height="420" font-family="system-ui,sans-serif" font-size="13">
<rect width="100%" height="100%" fill="#fafafa"/>
<defs><marker id="arr" markerWidth="8" markerHeight="8" refX="7" refY="3" orient="auto"><path d="M0,0 L8,3 L0,6 Z" fill="#444"/></marker></defs>
<text x="20" y="24" font-weight="600" fill="#111">STATUS</text>
<rect x="80" y="40" width="240" height="36" rx="6" ry="6" fill="#fff" stroke="#333" stroke-width="1.5"/><text x="200" y="58" text-anchor="middle" fill="#111">find_issues</text>
<rect x="80" y="104" width="240" height="36" rx="6" ry="6" fill="#fff" stroke="#333" stroke-width="1.5"/><text x="200" y="122" text-anchor="middle" fill="#111">patch? (opt)</text>
<line x1="200" y1="76" x2="200" y2="104" stroke="#444" marker-end="url(#arr)"/>
<rect x="80" y="168" width="240" height="36" rx="6" ry="6" fill="#fff" stroke="#333" stroke-width="1.5"/><text x="200" y="186" text-anchor="middle" fill="#111">summarizer</text>
<line x1="200" y1="140" x2="200" y2="168" stroke="#444" marker-end="url(#arr)"/>
<rect x="80" y="232" width="240" height="36" rx="6" ry="6" fill="#fff" stroke="#333" stroke-width="1.5"/><text x="200" y="250" text-anchor="middle" fill="#111">comment</text>
<line x1="200" y1="204" x2="200" y2="232" stroke="#444" marker-end="url(#arr)"/>
<rect x="80" y="296" width="240" height="36" rx="6" ry="6" fill="#fff" stroke="#333" stroke-width="1.5"/><text x="200" y="314" text-anchor="middle" fill="#111">blocker/done branches</text>
<line x1="200" y1="268" x2="200" y2="296" stroke="#444" marker-end="url(#arr)"/>
<rect x="80" y="360" width="240" height="36" rx="18" ry="18" fill="#d4edda" stroke="#333" stroke-width="1.5"/><text x="200" y="378" text-anchor="middle" fill="#111">terminal</text>
<line x1="200" y1="332" x2="200" y2="360" stroke="#444" marker-end="url(#arr)"/></svg>